<svg width="160" height="33" viewBox="0 0 160 33" fill="none" xmlns="http://www.w3.org/2000/svg">
<path d="M0.787781 32V7.04H9.09178V13.856C9.90778 9.728 12.3078 6.56 16.7238 6.56C17.2998 6.56 17.9238 6.608 18.5958 6.8V14.72C17.9718 14.576 17.4438 14.528 16.7718 14.528C11.7798 14.528 9.09178 17.792 9.09178 22.304V32H0.787781ZM31.0252 32.48C24.0172 32.48 17.7772 27.776 17.7772 19.568C17.7772 11.12 24.1132 6.56 30.5932 6.56C36.9292 6.56 44.5612 10.928 42.8332 22.736H25.8892C26.8972 24.752 29.0572 25.76 31.9372 25.76C33.9532 25.76 35.7772 25.376 37.6012 24.128L41.2492 28.016C39.2332 30.56 35.7292 32.48 31.0252 32.48ZM25.6012 16.88H35.5372C34.9612 14.528 32.8012 13.472 30.6892 13.472C28.5772 13.472 26.4652 14.528 25.6012 16.88ZM44.1978 32V7.04H52.5018V9.968C53.9418 7.952 56.2938 6.56 59.6058 6.56C64.6458 6.56 68.8698 9.68 68.8698 17.312V32H60.5658V18.752C60.5658 16.16 59.3178 13.904 56.4858 13.904C53.7018 13.904 52.5018 16.16 52.5018 18.752V32H44.1978ZM81.6337 32.288C76.6417 32.288 73.0417 29.888 73.0417 23.648V13.568H69.2497V7.04H73.0417V0.655997H81.3457V7.04H86.6257V13.568H81.3457V22.4C81.3457 23.552 82.0177 24.992 84.3697 24.992C84.9457 24.992 85.8577 24.896 86.7217 24.608V30.896C85.7617 31.952 83.5057 32.288 81.6337 32.288ZM98.3564 32.48C92.7884 32.48 86.5484 28.256 86.5484 19.52C86.5484 10.784 92.7884 6.56 98.3564 6.56C102.724 6.56 105.076 8.96 105.268 9.392H105.412V7.04H113.716V32H105.412V29.648H105.268C105.076 30.08 102.724 32.48 98.3564 32.48ZM94.7084 19.52C94.7084 23.024 97.2524 25.136 100.132 25.136C103.108 25.136 105.604 23.072 105.604 19.52C105.604 15.968 103.108 13.904 100.132 13.904C97.2524 13.904 94.7084 16.016 94.7084 19.52ZM116.016 32V7.04H124.32V13.856C125.136 9.728 127.536 6.56 131.952 6.56C132.528 6.56 133.152 6.608 133.824 6.8V14.72C133.2 14.576 132.672 14.528 132 14.528C127.008 14.528 124.32 17.792 124.32 22.304V32H116.016ZM159.58 7.04L159.532 32H151.228V29.072C149.788 31.088 147.436 32.48 144.124 32.48C139.084 32.48 134.86 29.36 134.86 21.728L134.908 7.04H143.212L143.164 20.288C143.164 22.88 144.412 25.136 147.244 25.136C150.028 25.136 151.228 22.88 151.228 20.288L151.276 7.04H159.58Z" fill="white"/>
</svg>
