<svg width="708" height="108" viewBox="0 0 708 108" fill="none" xmlns="http://www.w3.org/2000/svg">
<path d="M0 0.888995C0 1.42233 3.55556 6.75566 8 12.4446C12.4444 18.1334 16 23.6446 16 24.7112C16 25.9557 24.1778 26.6668 40.7111 26.6668C74.1333 26.6668 81.9556 29.8668 79.1111 42.8446C77.5111 49.7779 70.4 53.3334 57.7778 53.3334C52.4444 53.3334 48 53.689 48 54.2223C48 55.6446 76.4444 101.689 79.1111 104.533C80.5333 106.133 85.8667 106.667 97.6 106.311L113.956 105.778L102.4 88.889L90.6667 72.1779L96 68.8001C102.4 64.7112 110.222 49.4223 110.222 41.0668C110.222 24.889 101.511 11.2001 87.1111 4.62233C80 1.60011 74.4889 1.06677 39.6444 0.355661C17.7778 0.00010593 0 0.177884 0 0.888995Z" fill="white"/>
<path d="M112.178 8.00022C115.378 12.4447 119.111 17.0669 120.356 18.1336C121.6 19.2002 122.667 21.8669 122.667 24.0002V28.0891L163.2 27.5558C185.422 27.378 203.733 27.0224 204.089 26.8447C204.267 26.8447 204.444 20.6224 204.444 13.3336V0.000221759H155.378H106.489L112.178 8.00022Z" fill="white"/>
<path d="M213.333 53.3334V106.667H228.444H243.378L243.911 79.8223L244.444 52.8001L265.778 79.8223L286.933 106.667H299.022H311.111V53.3334V7.87973e-05H296.889H282.667V26.6667C282.667 41.2445 282.133 53.3334 281.422 53.3334C280.533 53.3334 270.578 41.2445 259.022 26.6667L237.867 7.87973e-05H225.6H213.333V53.3334Z" fill="white"/>
<path d="M316.444 14.2223V28.4445H332.444H348.444V67.5556V106.667H362.667H376.889V67.5556V28.6223L393.422 28.089L409.778 27.5556L410.311 13.689L410.844 7.87973e-05H363.555H316.444V14.2223Z" fill="white"/>
<path d="M428.267 4.8003C427.2 7.64475 417.244 31.1114 406.044 57.2447C394.844 83.5559 385.778 105.245 385.778 105.778C385.778 106.311 392.711 106.489 401.067 106.311L416.356 105.778L430.222 71.467C437.867 52.4447 444.444 36.6225 444.978 36.267C445.689 35.5559 455.111 58.4892 455.111 60.9781C455.111 61.6892 452.444 62.2225 449.244 62.2225C443.556 62.2225 443.022 62.7559 438.578 73.7781C435.911 80.1781 433.778 85.867 433.778 86.2225C433.778 86.7559 441.244 87.1114 450.311 87.1114H466.667L470.222 96.3559L473.956 105.778L489.6 106.311C503.467 106.667 505.244 106.489 504.178 104C503.644 102.4 493.333 78.2225 481.422 50.4892L459.733 0.000301242H444.978C430.4 0.000301242 430.044 0.178079 428.267 4.8003Z" fill="white"/>
<path d="M490.667 0.355643C490.667 0.888977 494.578 6.22231 499.556 12.6223L508.445 24.0001V65.2445V106.667H522.667H536.889L537.245 67.0223L537.778 27.5556L548.622 27.0223C561.6 26.489 568.178 28.6223 570.845 34.489C575.822 45.3334 567.111 53.3334 550.222 53.3334C544.889 53.3334 540.445 53.689 540.445 54.2223C540.445 56.3556 571.378 105.245 573.333 105.956C574.4 106.489 582.4 106.667 590.756 106.311L606.222 105.778L594.845 88.7112L583.289 71.6445L587.556 69.3334C592.711 66.6668 597.867 59.5556 600.533 51.7334C607.111 32.889 597.689 12.6223 578.667 4.08898C572.8 1.60009 564.8 0.888977 531.2 0.355643C508.8 8.7738e-05 490.667 8.7738e-05 490.667 0.355643Z" fill="white"/>
<path d="M660.267 107.556C644 107.556 636.714 107.089 623 94.9334C609.286 82.7778 611.911 67 611.911 39.6446C611.911 24.5 611.378 0.000114441 611.378 0.000114441H625.6H640V32.0001C640 69.5112 646.822 77.078 651.911 79.289C657 81.5 660.5 81.5963 665.244 80.1779C669.989 78.7595 677.867 73.4223 678.755 34.489L679.644 0.000114441H693.511H707.555V36.089C707.555 76.8001 705.867 84.9778 696 94.9334C686.133 104.889 676.533 107.556 660.267 107.556Z" fill="white"/>
<path d="M16 70.2223V106.667H30.2222H44.4444V70.2223V33.7779H30.2222H16V70.2223Z" fill="white"/>
<path d="M122.667 72.889V106.667H163.556H204.444V93.3334V80.0001H177.778H151.111V72.889V65.7779H173.867H196.444L196.267 54.5779C196.089 48.5334 195.911 42.489 195.911 41.2445C195.556 39.6445 187.022 39.1112 159.111 39.1112H122.667V72.889Z" fill="white"/>
</svg>
